<svg xmlns="http://www.w3.org/2000/svg" xmlns:xlink="http://www.w3.org/1999/xlink" width="161" height="40.114" viewBox="0 0 161 40.114"><defs><linearGradient id="a" x1="0.178" y1="-0.337" x2="0.835" y2="1.404" gradientUnits="objectBoundingBox"><stop offset="0" stop-color="#99cf16"/><stop offset="1" stop-color="#40a629"/></linearGradient></defs><path d="M3857.747,247.867v-5.232a2.273,2.273,0,0,0-2.278-2.268h-13.2a2.273,2.273,0,0,1-2.279-2.267v-.408a2.273,2.273,0,0,1,2.278-2.267h12.793a2.273,2.273,0,0,0,2.278-2.268v-5.232a2.273,2.273,0,0,0-2.279-2.268H3842.4a2.361,2.361,0,0,1-2.4-2.145,2.272,2.272,0,0,1,2.275-2.389h13.2a2.273,2.273,0,0,0,2.278-2.267v-5.232a2.273,2.273,0,0,0-2.278-2.268h-25a2.273,2.273,0,0,0-2.278,2.268v4.784a2.717,2.717,0,0,0-.465-.909c-3.031-3.8-7.955-6.782-15.3-6.782-7.46,0-14.052,3.046-17.9,8.429-1.9-4.563-6.292-7.788-12.946-7.788h-8.459a2.426,2.426,0,0,0-1.272,4.5l8.977,5.459c2.958,1.763,2.958,4.68,0,6.442l-13.9,8.408a1.436,1.436,0,0,1-2.182-1.222V213.827a2.476,2.476,0,0,0-2.481-2.47h-7.012a2.476,2.476,0,0,0-2.481,2.47V233.8c0,3.721-1.927,6.686-6.718,6.686-4.848,0-6.776-2.965-6.776-6.686V213.827a2.476,2.476,0,0,0-2.481-2.47h-7.012a2.476,2.476,0,0,0-2.481,2.47v.594a26.8,26.8,0,0,0-14.013-3.645c-10.69,0-16.182,5.988-16.182,12.558,0,9.709,9.814,11.22,16.24,12.383,3.855.7,5.491,1.453,5.491,2.965s-2.1,2.267-4.323,2.267a18.219,18.219,0,0,1-10.5-3.309,2.621,2.621,0,0,0-3.667.591l-3.139,4.462a2.577,2.577,0,0,0,.616,3.584c3.929,2.8,9.072,4.555,16.1,4.555,7.754,0,13.252-2.723,15.579-7.614,2.72,4.666,8.05,7.614,16.542,7.614,6.911,0,11.722-1.945,14.73-5.192v1.933a2.57,2.57,0,0,0,2.572,2.56h6.625a2.6,2.6,0,0,0,2.608-2.6V240.25a2.571,2.571,0,0,1,2.808-2.55,2.708,2.708,0,0,1,2.18,1.676l3.975,9.194a2.6,2.6,0,0,0,2.386,1.563h7.514a2.559,2.559,0,0,0,2.29-3.723l-4.061-7.886a2.541,2.541,0,0,1,.764-3.225c.292-.212.582-.443.868-.692,1.776,10.112,10.577,16.225,21.106,16.225A23.07,23.07,0,0,0,3828.19,245v2.864a2.273,2.273,0,0,0,2.278,2.267h25A2.273,2.273,0,0,0,3857.747,247.867Zm-142.936-22.441c-4.147-.7-5.724-1.221-5.724-2.732,0-.988.642-2.035,3.563-2.035a19.211,19.211,0,0,1,9.012,2.614,2.572,2.572,0,0,0,3.315-.7l2.329-3.069V229.85C3723.948,227.085,3718.788,226.109,3714.811,225.426Zm112.695,1.977h-13.517a2.727,2.727,0,0,0-2.734,2.721v4.209a2.727,2.727,0,0,0,2.734,2.721h3.7a1.1,1.1,0,0,1,1.1,1.094,1.115,1.115,0,0,1-.565.96,11.783,11.783,0,0,1-5.8,1.377c-5.666,0-9.463-4.3-9.463-9.709s3.8-9.709,9.463-9.709a8.072,8.072,0,0,1,5.989,2.575,2.71,2.71,0,0,0,3.219.639l5.2-2.65A2.693,2.693,0,0,0,3828.19,220v7.5A2.734,2.734,0,0,0,3827.506,227.4Z" transform="translate(-3696.747 -210.718)" fill="url(#a)"/></svg>